<svg width="42" height="41" viewBox="0 0 42 41" fill="none" xmlns="http://www.w3.org/2000/svg">
<path fill-rule="evenodd" clip-rule="evenodd" d="M23.4697 0.869918L29.6535 3.86937L35.9416 6.9203C36.4412 7.1767 37.0218 7.67496 37.54 8.33317C38.0247 8.94864 38.3609 9.58431 38.5099 10.1102L40.0568 16.9873L41.5883 23.7972C41.6958 24.3447 41.6682 25.1002 41.4815 25.905C41.295 26.7084 40.9874 27.3971 40.6502 27.8415L36.2693 33.286L31.8976 38.7186C31.5366 39.1466 30.924 39.6002 30.1707 39.9584C29.4106 40.3198 28.6652 40.5098 28.1027 40.5163L21.1428 40.4921L14.0796 40.4671C13.5258 40.4382 12.8111 40.2389 12.085 39.8795C11.3442 39.5133 10.7426 39.0555 10.3871 38.6248L6.06826 33.179L1.7906 27.7855C1.43357 27.3441 1.10445 26.6227 0.910093 25.7762C0.734859 25.0122 0.702836 24.2932 0.793122 23.7545L2.39669 16.854L3.96824 10.0912C4.10156 9.54324 4.46136 8.85518 4.99596 8.19298C5.49742 7.57229 6.05381 7.09634 6.53982 6.8365L12.8929 3.8102L19.0981 0.854284L19.1266 0.854506C19.6383 0.607429 20.4158 0.451147 21.2855 0.454144C22.1555 0.457474 22.9315 0.618861 23.4413 0.869822L23.4697 0.869918ZM21.1975 6.95847L26.7704 9.6378L32.3434 12.3168L33.7199 18.3369L35.0963 24.3568L31.2397 29.1844L27.3832 34.0117H21.1975H15.0121L11.1554 29.1844L7.29893 24.3568L8.67545 18.3369L10.0519 12.3168L15.6247 9.6378L21.1975 6.95847Z" fill="url(#paint0_linear_10150_1239)"/>
<path fill-rule="evenodd" clip-rule="evenodd" d="M23.4697 0.869918L29.6535 3.86937L35.9416 6.9203C36.4412 7.1767 37.0218 7.67496 37.54 8.33317C38.0247 8.94864 38.3609 9.58431 38.5099 10.1102L40.0568 16.9873L41.5883 23.7972C41.6958 24.3447 41.6682 25.1002 41.4815 25.905C41.295 26.7084 40.9874 27.3971 40.6502 27.8415L36.2693 33.286L31.8976 38.7186C31.5366 39.1466 30.924 39.6002 30.1707 39.9584C29.4106 40.3198 28.6652 40.5098 28.1027 40.5163L21.1428 40.4921L14.0796 40.4671C13.5258 40.4382 12.8111 40.2389 12.085 39.8795C11.3442 39.5133 10.7426 39.0555 10.3871 38.6248L6.06826 33.179L1.7906 27.7855C1.43357 27.3441 1.10445 26.6227 0.910093 25.7762C0.734859 25.0122 0.702836 24.2932 0.793122 23.7545L2.39669 16.854L3.96824 10.0912C4.10156 9.54324 4.46136 8.85518 4.99596 8.19298C5.49742 7.57229 6.05381 7.09634 6.53982 6.8365L12.8929 3.8102L19.0981 0.854284L19.1266 0.854506C19.6383 0.607429 20.4158 0.451147 21.2855 0.454144C22.1555 0.457474 22.9315 0.618861 23.4413 0.869822L23.4697 0.869918ZM21.1975 6.95847L26.7704 9.6378L32.3434 12.3168L33.7199 18.3369L35.0963 24.3568L31.2397 29.1844L27.3832 34.0117H21.1975H15.0121L11.1554 29.1844L7.29893 24.3568L8.67545 18.3369L10.0519 12.3168L15.6247 9.6378L21.1975 6.95847Z" fill="url(#paint1_linear_10150_1239)"/>
<path fill-rule="evenodd" clip-rule="evenodd" d="M13.6408 25.3727H13.6406V16.5291V16.5287H13.6408L21.1247 12.8303V12.8301H21.125H21.1253V12.8303L28.6092 16.5287H28.6095V16.5291V25.3727H28.6092L21.1253 29.0709H21.125H21.1247L13.6408 25.3727Z" fill="#FEFEFE"/>
<path fill-rule="evenodd" clip-rule="evenodd" d="M27.34 16.653L21.1253 19.6805V19.6807H21.1251H21.1248V19.6805L14.9102 16.653L21.1248 13.6255V13.625H21.1251H21.1253V13.6255L27.34 16.653Z" fill="#6464FF"/>
<path fill-rule="evenodd" clip-rule="evenodd" d="M14.3516 17.231L20.7062 20.347V27.9558L14.3516 24.8401V17.231Z" fill="#6464FF"/>
<path fill-rule="evenodd" clip-rule="evenodd" d="M27.8975 17.231L21.543 20.347V27.9558L27.8975 24.8401V17.231Z" fill="#6464FF"/>
<defs>
<linearGradient id="paint0_linear_10150_1239" x1="12.9238" y1="26.4579" x2="29.4552" y2="14.4824" gradientUnits="userSpaceOnUse">
<stop stop-color="#0044FF"/>
<stop offset="1" stop-color="#E10019"/>
</linearGradient>
<linearGradient id="paint1_linear_10150_1239" x1="14.7227" y1="28.4282" x2="27.6489" y2="12.5171" gradientUnits="userSpaceOnUse">
<stop stop-color="#0044FF"/>
<stop offset="0.490196" stop-color="#CF3868"/>
<stop offset="1" stop-color="#CC0018"/>
</linearGradient>
</defs>
</svg>
