<svg width="240" height="41" viewBox="0 0 240 41" fill="none" xmlns="http://www.w3.org/2000/svg">
<path fill-rule="evenodd" clip-rule="evenodd" d="M46.4727 36.5533L57.2617 10.3755H63.518L74.1946 36.5533H68.3131L65.6532 29.6724H54.8269L52.1295 36.5533H46.4727ZM56.5125 25.3344H64.005L60.2588 15.6859L56.5125 25.3344ZM87.1616 36.8738C85.4919 36.8738 83.929 36.5856 82.4735 36.0083C81.0179 35.4104 79.7442 34.5873 78.6523 33.5401C77.5819 32.4931 76.7364 31.275 76.1157 29.886C75.5162 28.4757 75.2166 26.9582 75.2166 25.3344C75.2166 23.6888 75.5162 22.1714 76.1157 20.7826C76.7364 19.3722 77.5928 18.1436 78.6845 17.0962C79.7761 16.0491 81.0391 15.237 82.4735 14.66C83.929 14.0619 85.4919 13.7628 87.1616 13.7628C88.4032 13.7628 89.602 13.9337 90.758 14.2754C91.9141 14.6173 92.9841 15.0982 93.9691 15.7181C94.9751 16.3378 95.8312 17.0857 96.5379 17.9619L93.391 21.0712C92.5775 20.0666 91.6355 19.3082 90.5653 18.7952C89.5163 18.2825 88.3818 18.0257 87.1616 18.0257C86.1555 18.0257 85.2136 18.2184 84.3358 18.603C83.4581 18.9663 82.6983 19.4792 82.056 20.1417C81.4137 20.7825 80.9108 21.552 80.5469 22.4493C80.1829 23.3255 80.0009 24.2871 80.0009 25.3344C80.0009 26.3601 80.1829 27.3216 80.5469 28.2192C80.9108 29.0952 81.4246 29.8646 82.0882 30.5273C82.7517 31.1682 83.5225 31.6704 84.4 32.0338C85.2992 32.3971 86.2733 32.5788 87.322 32.5788C88.4994 32.5788 89.602 32.3329 90.6295 31.8413C91.657 31.3499 92.5667 30.6447 93.3587 29.7256L96.4094 32.739C95.7029 33.5939 94.8574 34.3308 93.8725 34.9508C92.8878 35.5705 91.8174 36.0512 90.6616 36.3931C89.5269 36.7136 88.3603 36.8738 87.1616 36.8738ZM109.739 36.8738C108.069 36.8738 106.507 36.5856 105.051 36.0083C103.595 35.4104 102.321 34.5873 101.23 33.5401C100.16 32.4931 99.3139 31.275 98.6932 29.886C98.0938 28.4757 97.7939 26.9582 97.7939 25.3344C97.7939 23.6888 98.0938 22.1714 98.6932 20.7826C99.3139 19.3722 100.17 18.1436 101.262 17.0962C102.354 16.0491 103.617 15.237 105.051 14.66C106.507 14.0619 108.069 13.7628 109.739 13.7628C110.981 13.7628 112.18 13.9337 113.336 14.2754C114.492 14.6173 115.562 15.0982 116.547 15.7181C117.553 16.3378 118.409 17.0857 119.116 17.9619L115.969 21.0712C115.156 20.0666 114.214 19.3082 113.143 18.7952C112.094 18.2825 110.959 18.0257 109.739 18.0257C108.733 18.0257 107.791 18.2184 106.913 18.603C106.036 18.9663 105.276 19.4792 104.634 20.1417C103.991 20.7825 103.488 21.552 103.124 22.4493C102.76 23.3255 102.579 24.2871 102.579 25.3344C102.579 26.3601 102.76 27.3216 103.124 28.2192C103.488 29.0952 104.002 29.8646 104.666 30.5273C105.329 31.1682 106.1 31.6704 106.978 32.0338C107.877 32.3971 108.851 32.5788 109.9 32.5788C111.078 32.5788 112.18 32.3329 113.207 31.8413C114.235 31.3499 115.145 30.6447 115.937 29.7256L118.987 32.739C118.281 33.5939 117.435 34.3308 116.451 34.9508C115.466 35.5705 114.396 36.0512 113.24 36.3931C112.105 36.7136 110.938 36.8738 109.739 36.8738ZM131.31 36.8738C129.277 36.8738 127.51 36.4678 126.012 35.656C124.535 34.8438 123.39 33.69 122.576 32.194C121.763 30.6766 121.356 28.9032 121.356 26.8728V14.1153H126.012V26.8728C126.012 28.0268 126.226 29.0419 126.654 29.9183C127.104 30.7729 127.725 31.4353 128.517 31.9054C129.33 32.3542 130.272 32.5789 131.342 32.5789C132.413 32.5789 133.344 32.3542 134.136 31.9054C134.928 31.4353 135.538 30.7729 135.966 29.9183C136.416 29.0419 136.641 28.0268 136.641 26.8728V14.1153H141.264V26.8728C141.264 28.8817 140.858 30.6447 140.044 32.1621C139.231 33.658 138.075 34.8226 136.576 35.656C135.099 36.4678 133.344 36.8738 131.31 36.8738Z" fill="#FFFFFF"/>
<path fill-rule="evenodd" clip-rule="evenodd" d="M145.314 36.5533V10.3755H150.746V22.0808L162.21 10.3755H168.841L156.104 22.8287L169.44 36.5533H162.172L150.747 24.3993V36.5533H145.314ZM171.098 36.5533V14.1153H175.529L186.704 28.6039V14.1153H191.071V36.5533H186.96L175.497 21.552V36.5533H171.098ZM206.164 36.9061C204.494 36.9061 202.942 36.6175 201.508 36.0406C200.073 35.442 198.81 34.6196 197.719 33.5724C196.648 32.5039 195.803 31.275 195.182 29.886C194.582 28.4757 194.283 26.9582 194.283 25.3344C194.283 23.7103 194.582 22.2037 195.182 20.8145C195.803 19.4042 196.648 18.1755 197.719 17.1284C198.81 16.06 200.073 15.237 201.508 14.66C202.942 14.0619 204.494 13.7628 206.164 13.7628C207.833 13.7628 209.385 14.0619 210.819 14.66C212.275 15.237 213.538 16.06 214.608 17.1284C215.7 18.1755 216.546 19.4042 217.145 20.8145C217.745 22.2037 218.044 23.7103 218.044 25.3344C218.044 26.9582 217.745 28.4757 217.145 29.886C216.546 31.275 215.7 32.5039 214.608 33.5724C213.538 34.6196 212.275 35.442 210.819 36.0406C209.385 36.6175 207.833 36.9061 206.164 36.9061ZM206.164 32.6428C207.191 32.6428 208.133 32.4612 208.989 32.0978C209.845 31.7132 210.595 31.2002 211.237 30.5593C211.879 29.8969 212.382 29.1166 212.746 28.2193C213.11 27.3217 213.292 26.3601 213.292 25.3344C213.292 24.2872 213.11 23.3255 212.746 22.4493C212.382 21.552 211.879 20.7826 211.237 20.1417C210.595 19.4793 209.845 18.9664 208.989 18.6031C208.133 18.2185 207.191 18.0258 206.164 18.0258C205.157 18.0258 204.226 18.2185 203.37 18.6031C202.514 18.9664 201.764 19.4793 201.122 20.1417C200.48 20.7826 199.977 21.552 199.613 22.4493C199.249 23.3255 199.067 24.2765 199.067 25.3023C199.067 26.3493 199.249 27.3217 199.613 28.2193C199.977 29.1166 200.48 29.8969 201.122 30.5593C201.764 31.2002 202.514 31.7132 203.37 32.0978C204.226 32.4612 205.157 32.6428 206.164 32.6428ZM216.736 36.5533L225.31 24.9498L217.186 14.1153H222.741L228.071 21.4877L233.369 14.1153H238.732L230.736 24.9498L239.406 36.5533H233.851L227.975 28.4114L222.099 36.5533H216.736Z" fill="#FFFFFF"/>
<path fill-rule="evenodd" clip-rule="evenodd" d="M23.4697 0.869918L29.6535 3.86937L35.9416 6.9203C36.4412 7.1767 37.0218 7.67496 37.54 8.33317C38.0247 8.94864 38.3609 9.58431 38.5099 10.1102L40.0568 16.9873L41.5883 23.7972C41.6958 24.3447 41.6682 25.1002 41.4815 25.905C41.295 26.7084 40.9874 27.3971 40.6502 27.8415L36.2693 33.286L31.8976 38.7186C31.5366 39.1466 30.924 39.6002 30.1707 39.9584C29.4106 40.3198 28.6652 40.5098 28.1027 40.5163L21.1428 40.4921L14.0796 40.4671C13.5258 40.4382 12.8111 40.2389 12.085 39.8795C11.3442 39.5133 10.7426 39.0555 10.3871 38.6248L6.06826 33.179L1.7906 27.7855C1.43357 27.3441 1.10445 26.6227 0.910093 25.7762C0.734859 25.0122 0.702836 24.2932 0.793122 23.7545L2.39669 16.854L3.96824 10.0912C4.10156 9.54324 4.46136 8.85518 4.99596 8.19298C5.49742 7.57229 6.05381 7.09634 6.53982 6.8365L12.8929 3.8102L19.0981 0.854284L19.1266 0.854506C19.6383 0.607429 20.4158 0.451147 21.2855 0.454144C22.1555 0.457474 22.9315 0.618861 23.4413 0.869822L23.4697 0.869918ZM21.1975 6.95847L26.7704 9.6378L32.3434 12.3168L33.7199 18.3369L35.0963 24.3568L31.2397 29.1844L27.3832 34.0117H21.1975H15.0121L11.1554 29.1844L7.29893 24.3568L8.67545 18.3369L10.0519 12.3168L15.6247 9.6378L21.1975 6.95847Z" fill="url(#paint0_linear_dark)"/>
<path fill-rule="evenodd" clip-rule="evenodd" d="M23.4697 0.869918L29.6535 3.86937L35.9416 6.9203C36.4412 7.1767 37.0218 7.67496 37.54 8.33317C38.0247 8.94864 38.3609 9.58431 38.5099 10.1102L40.0568 16.9873L41.5883 23.7972C41.6958 24.3447 41.6682 25.1002 41.4815 25.905C41.295 26.7084 40.9874 27.3971 40.6502 27.8415L36.2693 33.286L31.8976 38.7186C31.5366 39.1466 30.924 39.6002 30.1707 39.9584C29.4106 40.3198 28.6652 40.5098 28.1027 40.5163L21.1428 40.4921L14.0796 40.4671C13.5258 40.4382 12.8111 40.2389 12.085 39.8795C11.3442 39.5133 10.7426 39.0555 10.3871 38.6248L6.06826 33.179L1.7906 27.7855C1.43357 27.3441 1.10445 26.6227 0.910093 25.7762C0.734859 25.0122 0.702836 24.2932 0.793122 23.7545L2.39669 16.854L3.96824 10.0912C4.10156 9.54324 4.46136 8.85518 4.99596 8.19298C5.49742 7.57229 6.05381 7.09634 6.53982 6.8365L12.8929 3.8102L19.0981 0.854284L19.1266 0.854506C19.6383 0.607429 20.4158 0.451147 21.2855 0.454144C22.1555 0.457474 22.9315 0.618861 23.4413 0.869822L23.4697 0.869918ZM21.1975 6.95847L26.7704 9.6378L32.3434 12.3168L33.7199 18.3369L35.0963 24.3568L31.2397 29.1844L27.3832 34.0117H21.1975H15.0121L11.1554 29.1844L7.29893 24.3568L8.67545 18.3369L10.0519 12.3168L15.6247 9.6378L21.1975 6.95847Z" fill="url(#paint1_linear_dark)"/>
<path fill-rule="evenodd" clip-rule="evenodd" d="M13.6408 25.3727H13.6406V16.5291V16.5287H13.6408L21.1247 12.8303V12.8301H21.125H21.1253V12.8303L28.6092 16.5287H28.6095V16.5291V25.3727H28.6092L21.1253 29.0709H21.125H21.1247L13.6408 25.3727Z" fill="#FEFEFE"/>
<path fill-rule="evenodd" clip-rule="evenodd" d="M27.34 16.653L21.1253 19.6805V19.6807H21.1251H21.1248V19.6805L14.9102 16.653L21.1248 13.6255V13.625H21.1251H21.1253V13.6255L27.34 16.653Z" fill="#6464FF"/>
<path fill-rule="evenodd" clip-rule="evenodd" d="M14.3516 17.231L20.7062 20.347V27.9558L14.3516 24.8401V17.231Z" fill="#6464FF"/>
<path fill-rule="evenodd" clip-rule="evenodd" d="M27.8975 17.231L21.543 20.347V27.9558L27.8975 24.8401V17.231Z" fill="#6464FF"/>
<defs>
<linearGradient id="paint0_linear_dark" x1="12.9238" y1="26.4579" x2="29.4552" y2="14.4824" gradientUnits="userSpaceOnUse">
<stop stop-color="#0044FF"/>
<stop offset="1" stop-color="#E10019"/>
</linearGradient>
<linearGradient id="paint1_linear_dark" x1="14.7227" y1="28.4282" x2="27.6489" y2="12.5171" gradientUnits="userSpaceOnUse">
<stop stop-color="#0044FF"/>
<stop offset="0.490196" stop-color="#CF3868"/>
<stop offset="1" stop-color="#CC0018"/>
</linearGradient>
</defs>
</svg>
