<?xml version="1.0" standalone="no"?>
<!DOCTYPE svg PUBLIC "-//W3C//DTD SVG 20010904//EN"
 "http://www.w3.org/TR/2001/REC-SVG-20010904/DTD/svg10.dtd">
<svg version="1.0" xmlns="http://www.w3.org/2000/svg"
 width="512.000000pt" height="512.000000pt" viewBox="0 0 512.000000 512.000000"
 preserveAspectRatio="xMidYMid meet">

<g transform="translate(0.000000,512.000000) scale(0.100000,-0.100000)"
fill="#000000" stroke="none">
<path d="M2059 5092 c-8 -3 -39 -16 -69 -30 -30 -14 -460 -200 -955 -414 -495
-213 -911 -396 -924 -406 -56 -42 -83 -88 -88 -151 -10 -121 15 -152 274 -336
114 -82 231 -166 260 -187 l52 -38 -48 -102 c-99 -209 -171 -446 -206 -668
-22 -147 -30 -428 -16 -580 45 -472 221 -908 518 -1280 64 -80 252 -276 318
-330 301 -248 665 -427 1025 -504 201 -42 285 -51 515 -51 230 0 314 9 515 51
255 54 565 183 778 323 51 34 97 61 101 61 5 0 62 -30 128 -68 153 -87 165
-92 224 -92 66 0 134 33 170 82 47 66 56 110 37 188 -6 27 -45 88 -101 158
-29 37 -57 73 -61 79 -4 8 21 47 64 100 296 366 476 809 521 1283 14 152 6
433 -16 580 -100 648 -456 1218 -1000 1601 -50 35 -101 70 -114 77 -280 161
-508 250 -761 301 -197 38 -272 45 -506 45 l-232 0 -78 114 c-44 63 -96 129
-117 147 -52 45 -147 66 -208 47z m604 -917 c284 -404 517 -741 517 -749 0
-21 -10 -26 -164 -76 -111 -36 -140 -49 -147 -67 -8 -22 11 -48 668 -877 65
-82 126 -162 136 -177 18 -27 18 -28 -5 -42 -13 -8 -95 -31 -183 -52 -168 -39
-205 -54 -201 -81 1 -9 272 -358 602 -775 329 -418 600 -768 602 -778 2 -10
-4 -21 -13 -25 -11 -4 -474 258 -1358 769 -738 426 -1348 779 -1356 784 -8 5
-11 17 -7 28 5 14 50 37 169 83 179 71 199 82 189 111 -4 11 -96 83 -204 162
-108 78 -356 258 -552 400 -196 142 -356 264 -356 271 0 21 16 30 145 86 66
29 124 56 129 61 34 31 18 45 -525 431 -296 211 -541 389 -544 397 -3 8 -1 19
4 24 16 16 1894 825 1917 826 16 1 129 -154 537 -734z"/>
</g>
</svg>
